<svg width="363" height="155" viewBox="0 0 363 155" fill="none" xmlns="http://www.w3.org/2000/svg">
<path d="M363 82.3394L337.78 132.339H307.49L298.74 145.089H64.26L55.51 132.339H25.23L0 82.3394L25.23 32.3394H73.92L73.91 32.3294L88.93 10.1094H274.08L289.09 32.3294L289.08 32.3394H337.78L363 82.3394Z" fill="#101317"/>
<path d="M317.263 44H273.089L251 82.2521L273.089 120.51H317.263L339.352 82.2521L317.263 44ZM314.578 115.855H275.774L256.376 82.2521L275.774 48.6547H314.578L333.976 82.2521L314.578 115.855Z" fill="#2657B8" fill-opacity="0.58"/>
<path d="M328.601 82.2473L311.887 111.196H278.471L261.758 82.2473L278.471 53.3105H311.887L328.601 82.2473Z" fill="#122C60" fill-opacity="0.2"/>
<path d="M314.577 48.6543H275.774L256.375 82.2516L275.774 115.855H314.577L333.975 82.2516L314.577 48.6543ZM311.886 111.212H278.47L261.763 82.2516L278.476 53.309H311.892L328.594 82.2516L311.886 111.212Z" fill="#1C4493" fill-opacity="0.44"/>
<path d="M90.2626 45H46.0895L24 83.2521L46.0895 121.51H90.2626L112.352 83.2521L90.2626 45ZM87.5776 116.855H48.7744L29.3758 83.2521L48.7744 49.6547H87.5776L106.976 83.2521L87.5776 116.855Z" fill="#2657B8" fill-opacity="0.58"/>
<path d="M101.601 83.2473L84.8871 112.196H51.4715L34.7578 83.2473L51.4715 54.3105H84.8871L101.601 83.2473Z" fill="#122C60" fill-opacity="0.2"/>
<path d="M87.5768 49.6543H48.7736L29.375 83.2516L48.7736 116.855H87.5768L106.975 83.2516L87.5768 49.6543ZM84.8859 112.212H51.4703L34.7625 83.2516L51.4762 54.309H84.8918L101.594 83.2516L84.8859 112.212Z" fill="#1C4493" fill-opacity="0.44"/>
<path d="M226.25 0H136.75L92 77.4955L136.75 155H226.25L271 77.4955L226.25 0Z" fill="#16191E"/>
<path d="M220.03 13H144.68L107 78.25L144.68 143.51H220.03L257.71 78.25L220.03 13ZM215.45 135.57H149.26L116.17 78.25L149.26 20.94H215.45L248.54 78.25L215.45 135.57Z" fill="#2657B8"/>
<path d="M239.368 78.2409L210.858 127.621H153.858L125.348 78.2409L153.858 28.8809H210.858L239.368 78.2409Z" fill="#122C60"/>
<path d="M215.448 20.9395H149.258L116.168 78.2495L149.258 135.569H215.448L248.538 78.2495L215.448 20.9395ZM210.858 127.649H153.858L125.358 78.2495L153.868 28.8795H210.868L239.358 78.2495L210.858 127.649Z" fill="#1C4493"/>
</svg>
