<svg width="363" height="136" viewBox="0 0 363 136" fill="none" xmlns="http://www.w3.org/2000/svg">
<path d="M363 72.3394L337.78 122.339H307.49L298.74 135.089H64.26L55.51 122.339H25.23L0 72.3394L25.23 22.3394H73.92L73.91 22.3294L88.93 0.109375H274.08L289.09 22.3294L289.08 22.3394H337.78L363 72.3394Z" fill="#101317"/>
<path d="M317.263 34H273.089L251 72.2521L273.089 110.51H317.263L339.352 72.2521L317.263 34ZM314.578 105.855H275.774L256.376 72.2521L275.774 38.6547H314.578L333.976 72.2521L314.578 105.855Z" fill="#2657B8" fill-opacity="0.58"/>
<path d="M328.601 72.2473L311.887 101.196H278.471L261.758 72.2473L278.471 43.3105H311.887L328.601 72.2473Z" fill="#122C60" fill-opacity="0.2"/>
<path d="M314.577 38.6543H275.774L256.375 72.2516L275.774 105.855H314.577L333.975 72.2516L314.577 38.6543ZM311.886 101.212H278.47L261.763 72.2516L278.476 43.309H311.892L328.594 72.2516L311.886 101.212Z" fill="#1C4493" fill-opacity="0.44"/>
<path d="M90.2626 35H46.0895L24 73.2521L46.0895 111.51H90.2626L112.352 73.2521L90.2626 35ZM87.5776 106.855H48.7744L29.3758 73.2521L48.7744 39.6547H87.5776L106.976 73.2521L87.5776 106.855Z" fill="#2657B8" fill-opacity="0.58"/>
<path d="M101.601 73.2473L84.8871 102.196H51.4715L34.7578 73.2473L51.4715 44.3105H84.8871L101.601 73.2473Z" fill="#122C60" fill-opacity="0.2"/>
<path d="M87.5768 39.6543H48.7736L29.375 73.2516L48.7736 106.855H87.5768L106.975 73.2516L87.5768 39.6543ZM84.8859 102.212H51.4703L34.7625 73.2516L51.4762 44.309H84.8918L101.594 73.2516L84.8859 102.212Z" fill="#1C4493" fill-opacity="0.44"/>
</svg>
