<svg width="179" height="155" viewBox="0 0 179 155" fill="none" xmlns="http://www.w3.org/2000/svg">
<path d="M134.25 0H44.75L0 77.4955L44.75 155H134.25L179 77.4955L134.25 0Z" fill="#16191E"/>
<path d="M128.03 13H52.68L15 78.25L52.68 143.51H128.03L165.71 78.25L128.03 13ZM123.45 135.57H57.26L24.17 78.25L57.26 20.94H123.45L156.54 78.25L123.45 135.57Z" fill="#2657B8"/>
<path d="M147.368 78.2409L118.858 127.621H61.8577L33.3477 78.2409L61.8577 28.8809H118.858L147.368 78.2409Z" fill="#122C60"/>
<path d="M123.448 20.9395H57.258L24.168 78.2495L57.258 135.569H123.448L156.538 78.2495L123.448 20.9395ZM118.858 127.649H61.858L33.358 78.2495L61.868 28.8795H118.868L147.358 78.2495L118.858 127.649Z" fill="#1C4493"/>
</svg>
